<svg xmlns="http://www.w3.org/2000/svg" width="1000" height="1000" viewBox="0 0 1000 1000" version="1.1"><path d="M 426 40.055 C 405.378 43.095, 387 56.959, 387 69.474 C 387 70.335, 385.126 71.057, 381.750 71.497 C 361.484 74.142, 340.286 79.698, 321.924 87.179 C 315.170 89.930, 312.833 90.472, 310.924 89.730 C 299.760 85.388, 288.051 89.755, 271 104.617 C 264.125 110.609, 254.900 118.189, 250.500 121.461 C 217.950 145.665, 201.668 172.701, 202.073 201.868 L 202.263 215.500 198.679 222 C 193.703 231.025, 182.706 255.955, 176.844 271.500 C 174.148 278.650, 170.200 289, 168.072 294.500 C 164.333 304.163, 163.343 307.294, 156.851 330 C 155.200 335.775, 153.020 342.975, 152.008 346 C 148.860 355.405, 141.972 387.744, 135.503 423.500 C 133.556 434.259, 130.347 462.099, 128.933 480.500 C 128.116 491.132, 127.232 496.680, 125.897 499.552 C 121.879 508.197, 121.499 512.307, 122.001 541.750 C 122.046 544.362, 121.795 550.900, 121.444 556.278 C 120.955 563.765, 121.152 566.927, 122.285 569.778 C 123.375 572.520, 123.635 576.002, 123.275 583 C 122.989 588.548, 123.279 594.788, 123.972 598 C 124.625 601.025, 125.497 609.800, 125.911 617.500 C 126.492 628.330, 127.093 632.292, 128.565 635 C 129.956 637.560, 130.606 641.326, 130.984 649.022 C 131.432 658.158, 131.912 660.397, 134.631 666.022 C 136.881 670.676, 137.917 674.505, 138.312 679.620 C 138.683 684.425, 139.810 688.831, 141.780 693.174 C 143.384 696.714, 145.013 702.395, 145.398 705.800 C 146.201 712.897, 148.117 718.069, 151.701 722.818 L 154.206 726.136 147.201 733.361 C 139.270 741.539, 137.438 747.338, 139.962 756.267 C 141.919 763.191, 142.877 769.171, 142.940 774.856 C 143.215 799.514, 175.094 838.884, 213.500 861.994 C 227.470 870.401, 249.969 873.650, 261.088 868.867 C 265.541 866.951, 266.224 866.888, 267.774 868.246 C 270.311 870.470, 275.626 873, 277.760 873 C 278.783 873, 281.949 874.988, 284.795 877.418 C 288.904 880.925, 292.024 882.474, 299.935 884.931 C 305.415 886.634, 310.178 888.479, 310.520 889.032 C 311.703 890.946, 320.520 894.738, 325.469 895.462 C 328.202 895.861, 332.477 897.205, 334.969 898.448 C 337.461 899.692, 343.100 901.462, 347.500 902.382 C 351.900 903.302, 359.775 905.403, 365 907.051 C 370.225 908.699, 377.650 910.503, 381.500 911.059 C 385.350 911.615, 391.028 912.933, 394.117 913.988 C 397.902 915.280, 403.609 916.061, 411.617 916.382 C 418.153 916.643, 426.546 917.576, 430.268 918.455 C 437.214 920.094, 438.813 920.147, 481.500 920.139 C 508.410 920.135, 539.927 918.781, 541.928 917.545 C 542.606 917.125, 547.737 916.401, 553.330 915.935 C 558.924 915.469, 565.975 914.345, 569 913.437 C 572.025 912.528, 578.100 911.449, 582.500 911.039 C 587.572 910.565, 592.800 909.304, 596.785 907.592 C 600.242 906.107, 606.963 904.262, 611.721 903.492 C 616.929 902.649, 622.806 900.893, 626.489 899.080 C 629.853 897.424, 635.299 895.440, 638.591 894.672 C 641.884 893.904, 648.160 891.450, 652.539 889.219 C 656.917 886.988, 663.523 884.245, 667.217 883.124 C 675.424 880.633, 678.893 878.893, 681.502 875.957 C 682.601 874.721, 685.726 872.717, 688.448 871.504 L 693.395 869.299 698.737 873.650 C 708.286 881.428, 722.362 879.013, 735.253 867.385 C 737.317 865.523, 739.527 864, 740.165 864 C 743.818 864, 761.272 852.293, 774.278 841.119 C 792.105 825.802, 822.127 782.999, 826.616 766.500 C 828.282 760.375, 828.446 740.720, 826.856 737.684 C 824.797 733.754, 818.730 727.541, 814.957 725.500 L 811.261 723.500 814.166 716.500 C 815.764 712.650, 817.319 707.250, 817.623 704.500 C 818.155 699.694, 822.021 688.722, 824.689 684.449 C 825.393 683.321, 826.410 679.046, 826.949 674.949 C 828.533 662.912, 829.617 657.742, 831.419 653.645 C 832.574 651.020, 833.036 647.671, 832.869 643.145 C 832.715 638.993, 833.293 634.249, 834.410 630.500 C 835.528 626.746, 836.365 619.868, 836.646 612.126 C 836.929 604.333, 837.676 598.223, 838.663 595.626 C 841.028 589.402, 841.366 584.484, 839.983 576.398 C 838.944 570.326, 838.964 568.505, 840.101 565.784 C 841.392 562.692, 841.655 555.693, 841.273 534.500 C 841.204 530.650, 841.205 523.225, 841.275 518 C 841.405 508.350, 839.786 501.654, 836.420 497.918 C 835.469 496.863, 834.649 491.872, 833.956 482.918 C 829.771 428.858, 820.520 379.255, 804.690 326 C 797.594 302.128, 785.487 268.302, 779.278 255 C 777.609 251.425, 774.784 245.125, 772.999 241 C 771.215 236.875, 767.603 229.225, 764.972 224 L 760.189 214.500 760.485 202.500 C 761.216 172.956, 744.112 144.936, 710 119.796 C 705.875 116.756, 697.325 109.804, 691 104.347 C 673.702 89.424, 667.006 86.621, 654.665 89.137 C 647.633 90.571, 645.770 90.103, 630.317 83.011 C 625.032 80.585, 600.634 74.626, 587.500 72.553 C 582 71.685, 576.127 70.752, 574.448 70.479 C 572.077 70.094, 571.120 69.220, 570.158 66.559 C 569.061 63.526, 566.046 59.565, 559.500 52.557 C 557.604 50.526, 551.824 48.725, 534 44.610 C 530.425 43.784, 522.325 42.614, 516 42.008 C 509.675 41.403, 500.645 40.479, 495.932 39.954 C 485.752 38.820, 433.865 38.895, 426 40.055" stroke="none" fill="#fffcfc" fill-rule="evenodd"/><path d="" stroke="none" fill="#fcfcfc" fill-rule="evenodd"/></svg>