<svg xmlns="http://www.w3.org/2000/svg" width="1000" height="1000" viewBox="0 0 1000 1000" version="1.1"><path d="M 468.500 143.985 C 465.200 144.448, 458.789 145.775, 454.254 146.934 C 449.492 148.150, 444.911 148.765, 443.411 148.388 C 436.326 146.610, 402.509 151.509, 401.370 154.479 C 400.693 156.241, 393.598 158.719, 387.500 159.321 C 373.739 160.680, 363.469 163.216, 358.500 166.483 C 355.750 168.290, 351.925 170.436, 350 171.252 C 348.075 172.068, 345.239 173.919, 343.698 175.367 C 342.158 176.815, 340.229 178, 339.414 178 C 338.598 178, 334.458 179.097, 330.215 180.437 C 325.972 181.777, 321.231 183.144, 319.680 183.474 C 318.129 183.803, 315.350 185.583, 313.504 187.429 C 311.658 189.275, 307.229 192.164, 303.662 193.850 C 298.680 196.204, 296.674 197.808, 295.009 200.771 C 293.323 203.770, 291.914 204.882, 288.670 205.772 C 284.963 206.788, 269.506 216.723, 266.256 220.178 C 255.369 231.750, 249.771 237.122, 246.343 239.285 C 243.494 241.082, 241.809 243.049, 240.989 245.534 C 240.044 248.397, 238.878 249.552, 235.453 251.020 C 231.259 252.818, 228 256.912, 228 260.383 C 228 261.198, 227.069 262.161, 225.931 262.522 C 223.641 263.249, 220.010 268.555, 220.004 271.183 C 220.002 272.108, 219.059 273.164, 217.909 273.529 C 216.759 273.894, 215.177 275.724, 214.395 277.596 C 213.613 279.468, 212.595 281, 212.133 281 C 209.352 281, 206 286.103, 206 290.337 C 206 293.925, 205.538 295.073, 203.576 296.358 C 202.243 297.232, 200.884 298.790, 200.557 299.822 C 200.229 300.853, 198.884 302.187, 197.568 302.787 C 194.982 303.966, 194.842 304.300, 192.927 313.934 C 191.953 318.839, 190.849 321.215, 188.282 323.934 C 186.431 325.895, 184.673 328.464, 184.377 329.642 C 184.080 330.820, 182.749 333.934, 181.419 336.561 C 180.088 339.189, 178.980 342.725, 178.956 344.419 C 178.896 348.616, 176.456 355.165, 174.556 356.228 C 171.505 357.936, 169.635 363.242, 169.850 369.580 C 170.044 375.290, 169.841 375.889, 166.528 379.402 C 163.764 382.333, 163 383.966, 163 386.949 C 163 389.043, 162.286 392.465, 161.413 394.554 C 160.375 397.039, 160.030 399.761, 160.416 402.426 C 160.869 405.552, 160.424 407.744, 158.503 411.849 C 155.922 417.366, 155.332 422.396, 156.965 424.977 C 157.600 425.982, 157.407 426.998, 156.361 428.154 C 153.632 431.169, 152.774 437.083, 151.902 458.896 C 151.432 470.665, 150.604 482.689, 150.063 485.618 C 149.315 489.662, 149.418 492.070, 150.489 495.631 C 151.443 498.799, 151.589 500.899, 150.940 502.112 C 150.412 503.098, 149.982 505.839, 149.983 508.203 C 149.985 510.566, 149.986 513.175, 149.987 514 C 149.988 514.825, 150.454 520.450, 151.022 526.500 C 151.591 532.550, 152.381 541.700, 152.778 546.833 C 153.371 554.501, 153.857 556.427, 155.500 557.629 C 157.255 558.912, 157.506 560.279, 157.550 568.796 C 157.593 577.010, 158.030 579.575, 160.395 585.500 C 162.340 590.370, 163.153 594.111, 163.068 597.793 C 162.896 605.285, 164.596 610.859, 167.450 612.159 C 170.791 613.681, 173.318 622.125, 172.431 628.806 C 171.676 634.499, 173.806 639.235, 178.737 642.827 C 181.127 644.568, 181.417 645.527, 181.940 653.406 C 182.501 661.852, 182.604 662.138, 186.008 664.775 C 192.271 669.626, 193.759 671.613, 194.482 676.090 C 195.985 685.396, 198.030 689.857, 201.861 692.184 C 206.384 694.931, 206.960 695.750, 207.007 699.500 C 207.067 704.318, 210.504 710.838, 213.364 711.555 C 216.816 712.422, 223.973 720.563, 225.676 725.561 C 227.141 729.861, 230.951 734.405, 237.301 739.424 C 239.335 741.032, 241 742.921, 241 743.622 C 241 744.323, 242.125 746.111, 243.500 747.595 C 244.875 749.078, 246 750.671, 246 751.134 C 246 751.597, 248.911 753.845, 252.469 756.129 C 257.308 759.236, 259.219 761.134, 260.052 763.659 C 260.725 765.695, 262.317 767.630, 264.066 768.534 C 265.660 769.358, 267.962 771.382, 269.181 773.032 C 270.513 774.833, 272.919 776.440, 275.206 777.056 C 277.301 777.620, 280.594 779.660, 282.524 781.591 C 285.817 784.883, 292.281 788, 295.818 788 C 296.680 788, 299.749 790.481, 302.640 793.513 C 305.570 796.587, 309.909 799.889, 312.447 800.977 C 314.951 802.051, 317 803.371, 317 803.912 C 317 805.717, 326.414 809.610, 334 810.940 C 343.280 812.568, 346.012 813.572, 347.692 815.970 C 348.415 817.003, 350.692 818.377, 352.753 819.026 C 354.814 819.674, 360.450 822.182, 365.277 824.598 C 372.656 828.293, 375.602 829.177, 383.777 830.151 C 389.125 830.788, 393.635 831.412, 393.800 831.538 C 393.965 831.664, 393.220 834.407, 392.144 837.633 C 388.853 847.500, 392.721 861.650, 399.212 863.489 C 402.051 864.294, 410.395 868.650, 414.724 871.588 C 424.256 878.056, 528.163 877.549, 541.056 870.971 C 544.312 869.310, 546.145 869.058, 551.262 869.567 C 569.707 871.401, 585.359 854.813, 580.480 838.601 L 579.127 834.104 583.813 833.536 C 593.087 832.413, 598.648 830.754, 607.500 826.470 C 612.450 824.074, 619.200 821.396, 622.500 820.518 C 625.800 819.640, 630.300 818.045, 632.500 816.973 C 634.700 815.901, 638.525 814.385, 641 813.604 C 643.475 812.823, 646.850 811.706, 648.500 811.121 C 650.150 810.536, 652.708 809.818, 654.184 809.526 C 655.660 809.234, 659.471 806.552, 662.654 803.566 C 666.490 799.968, 669.924 797.721, 672.837 796.906 C 675.255 796.229, 678.492 794.615, 680.032 793.320 C 681.571 792.025, 685.371 789.841, 688.476 788.468 C 691.582 787.095, 695.107 784.957, 696.311 783.717 C 699.228 780.712, 704.859 776.711, 708.231 775.246 C 709.926 774.510, 711.780 772.319, 713.121 769.466 C 714.790 765.916, 716.164 764.518, 719.169 763.316 C 721.308 762.460, 723.488 760.957, 724.012 759.977 C 724.537 758.997, 726.924 757.247, 729.317 756.089 C 735.106 753.286, 738.178 749.842, 738.911 745.334 C 739.421 742.195, 740.010 741.495, 742.734 740.789 C 744.505 740.330, 746.414 739.095, 746.976 738.045 C 747.538 736.995, 748.888 735.853, 749.977 735.507 C 752.237 734.790, 757 725.987, 757 722.526 C 757 720.874, 757.739 720.031, 759.596 719.565 C 762.362 718.871, 768 713.359, 768 711.350 C 768 709.152, 774.567 697.556, 777.809 694.027 C 779.564 692.117, 781 690.035, 781 689.400 C 781 688.765, 781.631 687.721, 782.402 687.081 C 783.173 686.442, 784.101 684.734, 784.464 683.288 C 784.827 681.841, 785.996 679.549, 787.062 678.194 C 788.128 676.839, 789 674.201, 789 672.331 C 789 669.527, 789.594 668.582, 792.394 666.930 C 794.318 665.795, 796.302 663.537, 796.976 661.714 C 797.630 659.946, 798.803 657.022, 799.583 655.216 C 800.362 653.410, 801 650.597, 801 648.966 C 801 647.335, 801.852 645.148, 802.894 644.106 C 803.936 643.064, 805.118 640.261, 805.521 637.878 C 805.923 635.494, 806.848 632.634, 807.576 631.522 C 808.304 630.410, 809.183 627.475, 809.531 625 C 810.488 618.181, 813.805 609.905, 818.861 601.725 C 820.684 598.776, 821.024 596.855, 820.880 590.339 C 820.762 584.995, 821.272 580.908, 822.481 577.500 C 823.483 574.676, 824.408 568.688, 824.607 563.740 C 824.826 558.294, 825.565 553.808, 826.560 551.883 C 827.760 549.563, 828.188 545.618, 828.267 536.143 C 828.358 525.287, 828.649 523.120, 830.327 520.814 C 833.076 517.036, 833.669 509.195, 831.521 505.041 C 829.915 501.935, 829.918 501.368, 831.584 494.947 C 833.410 487.907, 832.750 478.692, 829.833 470.500 C 828.611 467.069, 828.604 466.728, 829.573 458.191 C 830.184 452.799, 830.004 451.490, 828.334 449.191 C 826.748 447.007, 826.341 444.616, 826.171 436.500 C 825.983 427.534, 825.263 422.687, 821.971 408.236 C 821.437 405.890, 821 402.605, 821 400.936 C 821 397.568, 818.491 392, 816.974 392 C 816.438 392, 816 389.728, 816 386.950 C 816 384.173, 815.319 380.584, 814.487 378.975 C 813.655 377.367, 812.702 373.226, 812.368 369.775 C 812.035 366.324, 811.141 362.503, 810.381 361.285 C 809.621 360.067, 809 358.358, 809 357.487 C 809 356.617, 807.825 354.815, 806.388 353.484 C 804.478 351.713, 803.679 349.842, 803.418 346.522 C 803.036 341.679, 801.546 338, 799.965 338 C 799.434 338, 799 337.137, 799 336.083 C 799 332.680, 795.212 325.202, 793.158 324.550 C 791.152 323.914, 789 319.361, 789 315.755 C 789 310.907, 785.781 302.857, 783.409 301.777 C 780.278 300.350, 773 290.701, 773 287.977 C 773 283.949, 768.532 278.361, 763.042 275.522 C 761.218 274.578, 759.717 272.672, 758.936 270.307 C 756.506 262.942, 752.862 256.893, 750.168 255.752 C 746.322 254.124, 742 249.923, 742 247.813 C 742 246.816, 741.100 245.100, 740 244 C 738.900 242.900, 738 241.325, 738 240.500 C 738 237.994, 734.189 235, 731 235 C 729.350 235, 728 234.585, 728 234.077 C 728 232.034, 722.639 226.964, 719.667 226.195 C 717.561 225.651, 715.555 223.971, 713.680 221.182 C 712.128 218.875, 709.700 216.203, 708.284 215.244 C 706.867 214.285, 703.766 211.588, 701.391 209.250 C 699.017 206.912, 696.350 205, 695.465 205 C 693.702 205, 685.098 200.267, 683.500 198.418 C 680.791 195.283, 674.277 192, 670.768 192 C 668.185 192, 666.302 191.292, 664.780 189.750 C 661.742 186.672, 653.746 181, 652.443 181 C 651.858 181, 650.057 179.718, 648.440 178.152 C 644.418 174.255, 642.266 173.255, 635.402 172.094 C 619.846 169.461, 614.742 167.936, 612.112 165.132 C 608.680 161.475, 595.542 157.184, 582.500 155.461 C 571.043 153.948, 564.412 152.614, 558 150.531 C 544.903 146.278, 528.516 144.549, 513.500 145.835 C 507.352 146.362, 502.817 146.217, 499.188 145.379 C 491.912 143.698, 475.770 142.964, 468.500 143.985" stroke="none" fill="#fffcfc" fill-rule="evenodd"/><path d="" stroke="none" fill="#fcfcfc" fill-rule="evenodd"/></svg>