<svg xmlns="http://www.w3.org/2000/svg" width="1000" height="1000" viewBox="0 0 1000 1000" version="1.1"><path d="M 673.500 245.557 C 666.900 246.275, 660.375 247.137, 659 247.473 C 657.625 247.809, 652.675 248.770, 648 249.609 C 643.325 250.448, 635.900 251.799, 631.500 252.610 C 627.100 253.421, 619.563 254.741, 614.750 255.543 C 609.938 256.344, 601.950 257.675, 597 258.500 C 592.050 259.325, 584.063 260.656, 579.250 261.457 C 570.994 262.832, 564.491 264.016, 546.250 267.465 C 541.987 268.271, 535.098 269.542, 530.940 270.289 C 526.782 271.036, 522.827 271.989, 522.152 272.406 C 521.002 273.117, 503.895 275.084, 499.500 275.010 C 498.400 274.992, 494.720 274.719, 491.323 274.403 C 485.982 273.907, 484.562 274.161, 480.823 276.278 C 478.065 277.841, 474.691 278.793, 471.500 278.908 C 465.670 279.119, 459.344 280.635, 458.483 282.027 C 458.153 282.562, 456.251 283, 454.257 283 C 452.263 283, 448.802 283.870, 446.566 284.934 C 440.882 287.638, 431.247 290.991, 426.500 291.917 C 420.209 293.145, 412.185 296.072, 410.915 297.603 C 410.277 298.371, 408.996 299, 408.067 299 C 407.139 299, 403.481 300.163, 399.940 301.584 C 389.638 305.719, 381.050 308.937, 373 311.681 C 368.875 313.087, 364.375 314.851, 363 315.601 C 361.625 316.350, 358.250 317.817, 355.500 318.860 C 346.310 322.346, 334.565 327.122, 327.920 330.075 C 324.301 331.684, 320.018 333, 318.402 333 C 316.786 333, 313.809 334.125, 311.785 335.500 C 309.762 336.875, 307.070 338.002, 305.803 338.004 C 304.536 338.006, 302.150 338.809, 300.500 339.788 C 298.850 340.768, 295.025 342.154, 292 342.869 C 288.975 343.584, 283.350 345.667, 279.500 347.498 C 275.650 349.329, 270.475 351.579, 268 352.498 C 265.525 353.417, 261.475 355.216, 259 356.496 C 256.525 357.776, 252.797 359.141, 250.716 359.530 C 248.635 359.918, 245.260 361.374, 243.216 362.766 C 241.172 364.158, 237.948 365.948, 236.051 366.745 C 234.154 367.541, 230.104 369.806, 227.051 371.778 C 223.998 373.750, 219.475 376.441, 217 377.758 C 214.525 379.076, 210.914 381.919, 208.976 384.077 C 206.814 386.484, 204.562 388, 203.150 388 C 201.884 388, 199.870 389.181, 198.674 390.625 C 197.478 392.068, 195.600 394.063, 194.500 395.058 C 178.601 409.442, 163 427, 163 430.509 C 163 430.950, 161.938 432.704, 160.640 434.406 C 159.342 436.108, 156.867 440.200, 155.139 443.500 C 153.411 446.800, 151.087 450.634, 149.975 452.021 C 148.862 453.407, 147.595 456.802, 147.158 459.565 C 146.721 462.328, 145.398 465.919, 144.217 467.545 C 141.956 470.657, 140.291 476.187, 139.110 484.500 C 138.720 487.250, 137.795 490.604, 137.056 491.954 C 136.317 493.303, 135.360 499.378, 134.930 505.454 C 134.500 511.529, 133.620 519.407, 132.974 522.959 C 132.261 526.877, 132.061 532.583, 132.466 537.459 C 132.834 541.882, 133.267 550.900, 133.430 557.500 C 133.593 564.100, 134.234 572.200, 134.855 575.500 C 135.476 578.800, 136.673 586.372, 137.514 592.326 C 138.465 599.057, 139.927 604.920, 141.380 607.826 C 142.777 610.622, 143.962 615.249, 144.329 619.342 C 144.786 624.446, 145.692 627.403, 147.894 630.982 C 151.046 636.105, 154 643.844, 154 646.981 C 154 648.032, 156.925 653.267, 160.500 658.613 C 164.075 663.960, 167 668.763, 167 669.287 C 167 670.844, 173.654 681.246, 176.898 684.762 C 178.554 686.556, 181.487 690.381, 183.416 693.262 C 189.138 701.807, 207.220 719.468, 213.729 722.870 C 215.253 723.667, 216.950 724.855, 217.500 725.510 C 218.391 726.573, 221.311 728.336, 231.500 733.965 C 233.150 734.877, 236.726 737.058, 239.446 738.811 C 243.030 741.122, 245.563 742, 248.649 742 C 253.196 742, 257.035 743.321, 260.885 746.210 C 262.197 747.195, 264.699 748, 266.445 748 C 268.192 748, 272.448 749.108, 275.903 750.462 C 282.476 753.038, 325.385 756.162, 328.308 754.278 C 328.963 753.855, 334.675 753.192, 341 752.805 C 360.735 751.596, 371.642 750.237, 374.829 748.588 C 376.518 747.715, 379.331 747, 381.079 747 C 382.828 747, 387.377 745.875, 391.189 744.500 C 395 743.125, 399.454 742, 401.085 742 C 402.716 742, 406.611 741.100, 409.740 740 C 412.870 738.900, 417.498 738, 420.024 738 C 422.551 738, 425.491 737.339, 426.559 736.532 C 427.626 735.724, 430.579 735.049, 433.120 735.032 C 435.661 735.014, 440.557 734.100, 444 733 C 447.443 731.900, 451.130 731, 452.192 731 C 453.255 731, 456.458 729.926, 459.312 728.614 C 462.165 727.301, 466.645 725.959, 469.267 725.630 C 471.889 725.302, 475.354 724.351, 476.968 723.517 C 478.581 722.683, 481.442 722, 483.326 722 C 485.210 722, 489.170 720.942, 492.126 719.648 C 495.082 718.354, 499.827 717.030, 502.672 716.704 C 505.517 716.379, 510.017 715.026, 512.672 713.698 C 515.327 712.370, 519.484 710.978, 521.909 710.605 C 524.333 710.231, 527.483 709.308, 528.909 708.554 C 532.826 706.480, 543.815 703.013, 550 701.898 C 553.025 701.353, 557.075 699.844, 559 698.545 C 560.925 697.247, 564.465 695.869, 566.866 695.485 C 569.770 695.019, 572.490 693.649, 574.987 691.392 C 577.228 689.368, 579.791 688, 581.343 688 C 585.990 688, 594.525 683.473, 597.976 679.179 C 599.827 676.877, 603.023 674.411, 605.368 673.478 C 607.641 672.573, 610.932 670.746, 612.683 669.417 C 614.434 668.087, 616.144 667, 616.483 667 C 616.823 667, 622.815 664.254, 629.800 660.899 C 636.785 657.543, 645.875 653.184, 650 651.211 C 654.125 649.238, 663.197 644.584, 670.160 640.868 C 687.620 631.550, 715.216 617.325, 735.500 607.187 C 792.174 578.860, 818.963 554.555, 838.390 513.839 C 840.926 508.525, 843 503.703, 843 503.123 C 843 502.542, 843.648 500.590, 844.441 498.784 C 845.233 496.978, 846.653 492.800, 847.597 489.500 C 848.540 486.200, 850.307 482.375, 851.523 481 C 857.340 474.421, 867.535 455.202, 868.498 449 C 868.883 446.525, 869.612 443.726, 870.118 442.780 C 872.498 438.333, 874.830 388.685, 873.032 380.764 C 872.499 378.419, 871.630 373.125, 871.100 369 C 869.340 355.286, 867.113 347.312, 857.670 320.918 C 848.063 294.064, 837.065 280.797, 817.951 273.007 C 814.953 271.785, 810.293 269.891, 807.596 268.798 C 803.710 267.224, 800.907 266.880, 794.096 267.139 C 786.097 267.444, 785.223 267.277, 781.518 264.733 C 779.328 263.230, 777.181 262, 776.748 262 C 776.315 262, 774.135 260.848, 771.903 259.439 C 751.407 246.500, 713.703 241.181, 673.500 245.557" stroke="none" fill="#fffcfc" fill-rule="evenodd"/><path d="" stroke="none" fill="#fcfcfc" fill-rule="evenodd"/></svg>