<svg xmlns="http://www.w3.org/2000/svg" width="1000" height="1000" viewBox="0 0 1000 1000" version="1.1"><path d="M 499.979 217.067 C 486.566 225.204, 486.945 224.778, 481.642 237.666 C 476.960 249.044, 475.512 256.010, 475.087 269.205 C 475.012 271.531, 474.475 271.996, 471.250 272.530 C 469.188 272.872, 466.375 273.515, 465 273.960 C 462.746 274.689, 459.807 275.528, 450.500 278.099 C 445.354 279.521, 420.796 287.622, 414.500 289.974 C 411.200 291.207, 405.800 292.461, 402.500 292.761 C 395.308 293.414, 390.080 295.516, 383.909 300.234 C 381.384 302.164, 377.784 304.005, 375.909 304.323 C 374.034 304.642, 369.970 305.328, 366.878 305.848 C 360.755 306.877, 358.592 307.834, 352.631 312.152 C 350.288 313.850, 347.426 315, 345.546 315 C 341.523 315, 333.777 319.876, 331.396 323.907 C 330.105 326.092, 328.812 327, 326.990 327 C 325.572 327, 321.956 328.548, 318.956 330.440 C 315.955 332.332, 311.925 334.773, 310 335.863 C 307.213 337.442, 282.713 360.923, 276 368.449 C 275.175 369.374, 272.961 371.114, 271.081 372.315 C 269.022 373.631, 266.293 377.001, 264.221 380.786 C 262.329 384.243, 259.650 387.843, 258.268 388.786 C 252.759 392.543, 245.694 399.670, 243.221 403.966 C 241.785 406.460, 239.622 409.850, 238.413 411.500 C 235.662 415.258, 227.716 430.411, 226.223 434.750 C 225.607 436.538, 224.678 438, 224.156 438 C 222.518 438, 217 447.548, 217 450.383 C 217 451.980, 214.934 456.152, 211.961 460.557 C 205.888 469.557, 201 482.237, 201 488.990 C 201 490.879, 199.663 494.707, 197.933 497.772 C 195.603 501.901, 194.731 504.923, 194.301 510.353 C 193.979 514.421, 193.108 518.222, 192.279 519.177 C 191.478 520.099, 190.451 522.349, 189.998 524.177 C 189.544 526.005, 188.424 530.200, 187.507 533.500 C 186.591 536.800, 185.451 542.650, 184.975 546.500 C 184.498 550.350, 183.594 555.750, 182.966 558.500 C 182.338 561.250, 181.479 567.325, 181.058 572 C 180.636 576.675, 179.803 582.075, 179.206 584 C 178.610 585.925, 177.601 591.998, 176.964 597.496 C 176.328 602.994, 175.360 608.327, 174.814 609.348 C 173.853 611.144, 174.153 617.208, 175.521 623.608 C 175.997 625.834, 175.567 627.928, 174.008 630.985 C 172.305 634.322, 171.923 636.483, 172.256 640.877 C 172.491 643.970, 172.017 650.039, 171.202 654.364 C 170.016 660.663, 169.944 663.547, 170.840 668.864 C 171.455 672.514, 171.855 678.497, 171.729 682.159 C 171.538 687.718, 171.872 689.323, 173.750 691.869 C 175.441 694.162, 176 696.286, 176 700.422 C 176 707.103, 178.708 714.691, 184.033 722.930 C 186.215 726.305, 188 729.915, 188 730.951 C 188 735.802, 191.749 741.682, 195.901 743.344 C 198.155 744.246, 200 745.401, 200 745.910 C 200 747.035, 206.382 753.561, 210.844 757 C 212.629 758.375, 215.646 761.111, 217.549 763.081 C 220.821 766.468, 223.901 768.123, 236.250 773.128 C 239.137 774.298, 243.750 776.269, 246.500 777.508 C 249.250 778.747, 253.075 780.338, 255 781.045 C 256.925 781.751, 259.175 782.898, 260 783.592 C 262.602 785.783, 270.227 787.767, 278.119 788.306 C 282.626 788.613, 287.324 789.605, 289.619 790.734 C 291.754 791.783, 295.525 793.219, 298 793.925 C 300.475 794.631, 303.625 795.658, 305 796.208 C 306.375 796.758, 314.178 797.628, 322.341 798.140 C 330.503 798.653, 339.053 799.725, 341.341 800.522 C 343.628 801.319, 346.542 801.977, 347.816 801.985 C 349.089 801.993, 351.063 802.498, 352.201 803.108 C 354.390 804.279, 378.806 805.088, 411.500 805.073 C 430.924 805.064, 442.822 805.083, 460.500 805.151 C 470.341 805.190, 482.183 804.055, 493 802.036 C 496.025 801.472, 505.564 800.824, 514.197 800.597 C 522.831 800.369, 530.433 799.851, 531.090 799.444 C 533.773 797.786, 547.330 795.743, 560.500 795.012 C 573.732 794.277, 578.817 793.530, 587 791.120 C 588.925 790.553, 592.975 789.436, 596 788.638 C 599.025 787.840, 602.850 786.731, 604.500 786.174 C 606.150 785.618, 612.450 784.914, 618.500 784.610 C 629.997 784.033, 633.610 783.089, 645.706 777.500 C 651.273 774.928, 654.919 773.984, 661.240 773.478 C 668.924 772.863, 681.028 769.569, 687.108 766.438 C 691.588 764.132, 701.226 761.159, 708 759.994 C 712.303 759.254, 718.894 756.728, 727.500 752.521 C 734.650 749.025, 742.075 745.644, 744 745.008 C 765.671 737.847, 772.243 734.812, 779.851 728.448 C 781.858 726.770, 786.563 724.121, 790.306 722.562 C 797.509 719.562, 807.601 713.441, 809.836 710.716 C 810.571 709.821, 814.993 706.943, 819.664 704.321 C 824.337 701.698, 830.021 697.519, 832.304 695.027 C 834.585 692.537, 838.228 689.825, 840.400 689 C 843.559 687.799, 845.162 686.165, 848.424 680.816 C 850.811 676.901, 853.384 673.902, 854.633 673.576 C 855.807 673.271, 858.110 671.778, 859.752 670.260 C 862.029 668.155, 863.776 667.485, 867.119 667.437 C 876.832 667.299, 879.566 664.245, 886.758 645.500 C 892.905 629.480, 894.911 623.313, 898.068 610.750 C 898.655 608.413, 899.529 605.150, 900.009 603.500 C 903.976 589.880, 903.639 567.950, 899.438 566.338 C 898.318 565.908, 897.985 563.429, 897.931 555.143 C 897.855 543.370, 896.459 520.393, 894.975 506.500 C 892.637 484.595, 892.629 483.371, 894.807 481.193 C 901.208 474.792, 896.744 444.216, 886.440 423.881 C 885.096 421.229, 883.274 416.909, 882.391 414.280 C 879.516 405.723, 856.776 361.749, 850.184 352 C 843.413 341.985, 840.972 338.962, 830.193 327.241 C 823.518 319.983, 823.518 319.983, 823.356 311.085 C 823.182 301.481, 822.459 299.613, 814.092 287.149 C 812.116 284.207, 809.825 280.784, 809 279.543 C 805.650 274.506, 791.527 263.389, 780.753 257.308 C 775.568 254.381, 773.761 252.762, 772.946 250.311 C 771.629 246.352, 759.921 235.235, 756.228 234.438 C 754.728 234.114, 751.250 232.954, 748.500 231.862 C 742.940 229.653, 724.220 228.056, 703.500 228.024 C 687.251 227.999, 657.132 225.582, 640 222.928 C 628.671 221.172, 616.977 220.032, 600.500 219.075 C 591.700 218.563, 583.600 217.873, 582.500 217.541 C 581.400 217.209, 575.325 216.531, 569 216.035 C 562.675 215.539, 555.250 214.585, 552.500 213.915 C 536.668 210.060, 508.768 211.734, 499.979 217.067" stroke="none" fill="#fffcfc" fill-rule="evenodd"/><path d="" stroke="none" fill="#fcfcfc" fill-rule="evenodd"/></svg>