<svg xmlns="http://www.w3.org/2000/svg" width="1000" height="1000" viewBox="0 0 1000 1000" version="1.1"><path d="M 271 245.493 C 256.005 247.485, 237.508 253.498, 228.097 259.439 C 225.865 260.848, 223.685 262, 223.252 262 C 222.819 262, 220.672 263.230, 218.482 264.733 C 214.777 267.277, 213.903 267.444, 205.904 267.139 C 199.093 266.880, 196.290 267.224, 192.404 268.798 C 189.707 269.891, 185.047 271.785, 182.049 273.007 C 162.935 280.797, 151.937 294.064, 142.330 320.918 C 132.887 347.312, 130.660 355.286, 128.900 369 C 128.370 373.125, 127.501 378.419, 126.968 380.764 C 125.170 388.685, 127.502 438.333, 129.882 442.780 C 130.388 443.726, 131.117 446.525, 131.502 449 C 132.465 455.202, 142.660 474.421, 148.477 481 C 149.693 482.375, 151.460 486.200, 152.403 489.500 C 153.347 492.800, 154.767 496.978, 155.559 498.784 C 156.352 500.590, 157 502.542, 157 503.123 C 157 504.697, 165.699 522.627, 169.797 529.500 C 178.644 544.336, 197.533 565.445, 210.495 574.981 C 226.427 586.703, 241.496 595.689, 264.500 607.187 C 284.784 617.325, 312.380 631.550, 329.840 640.868 C 336.803 644.584, 345.875 649.238, 350 651.211 C 354.125 653.184, 363.215 657.543, 370.200 660.899 C 377.185 664.254, 383.177 667, 383.517 667 C 383.856 667, 385.566 668.087, 387.317 669.417 C 389.068 670.746, 392.359 672.573, 394.632 673.478 C 396.977 674.411, 400.173 676.877, 402.024 679.179 C 405.475 683.473, 414.010 688, 418.657 688 C 420.209 688, 422.772 689.368, 425.013 691.392 C 427.510 693.649, 430.230 695.019, 433.134 695.485 C 435.535 695.869, 439.075 697.247, 441 698.545 C 442.925 699.844, 446.975 701.353, 450 701.898 C 456.185 703.013, 467.174 706.480, 471.091 708.554 C 472.517 709.308, 475.667 710.231, 478.091 710.605 C 480.516 710.978, 484.673 712.370, 487.328 713.698 C 489.983 715.026, 494.483 716.379, 497.328 716.704 C 500.173 717.030, 504.918 718.354, 507.874 719.648 C 510.830 720.942, 514.790 722, 516.674 722 C 518.558 722, 521.419 722.683, 523.032 723.517 C 524.646 724.351, 528.111 725.302, 530.733 725.630 C 533.355 725.959, 537.835 727.301, 540.688 728.614 C 543.542 729.926, 546.745 731, 547.808 731 C 548.870 731, 552.557 731.900, 556 733 C 559.443 734.100, 564.339 735.014, 566.880 735.032 C 569.421 735.049, 572.374 735.724, 573.441 736.532 C 574.509 737.339, 577.449 738, 579.976 738 C 582.502 738, 587.130 738.900, 590.260 740 C 593.389 741.100, 597.284 742, 598.915 742 C 600.546 742, 605 743.125, 608.811 744.500 C 612.623 745.875, 617.172 747, 618.921 747 C 620.669 747, 623.482 747.715, 625.171 748.588 C 628.358 750.237, 639.265 751.596, 659 752.805 C 665.325 753.192, 671.037 753.855, 671.692 754.278 C 674.615 756.162, 717.524 753.038, 724.097 750.462 C 727.552 749.108, 731.808 748, 733.555 748 C 735.301 748, 737.803 747.195, 739.115 746.210 C 742.965 743.321, 746.804 742, 751.351 742 C 754.437 742, 756.970 741.122, 760.554 738.811 C 763.274 737.058, 766.850 734.877, 768.500 733.965 C 778.689 728.336, 781.609 726.573, 782.500 725.510 C 783.050 724.855, 784.747 723.667, 786.271 722.870 C 792.780 719.468, 810.862 701.807, 816.584 693.262 C 818.513 690.381, 821.446 686.556, 823.102 684.762 C 826.346 681.246, 833 670.844, 833 669.287 C 833 668.763, 835.925 663.960, 839.500 658.613 C 843.075 653.267, 846 648.032, 846 646.981 C 846 643.844, 848.954 636.105, 852.106 630.982 C 854.308 627.403, 855.214 624.446, 855.671 619.342 C 856.038 615.249, 857.223 610.622, 858.620 607.826 C 860.073 604.920, 861.535 599.057, 862.486 592.326 C 863.327 586.372, 864.524 578.800, 865.145 575.500 C 865.766 572.200, 866.407 564.100, 866.570 557.500 C 866.733 550.900, 867.166 541.882, 867.534 537.459 C 867.939 532.583, 867.739 526.877, 867.026 522.959 C 866.380 519.407, 865.500 511.529, 865.070 505.454 C 864.640 499.378, 863.683 493.303, 862.944 491.954 C 862.205 490.604, 861.280 487.250, 860.890 484.500 C 859.709 476.187, 858.044 470.657, 855.783 467.545 C 854.602 465.919, 853.279 462.328, 852.842 459.565 C 852.405 456.802, 851.138 453.407, 850.025 452.021 C 848.913 450.634, 846.589 446.800, 844.861 443.500 C 843.133 440.200, 840.658 436.108, 839.360 434.406 C 838.062 432.704, 837 430.950, 837 430.509 C 837 427, 821.399 409.442, 805.500 395.058 C 804.400 394.063, 802.522 392.068, 801.326 390.625 C 800.130 389.181, 798.116 388, 796.850 388 C 795.438 388, 793.186 386.484, 791.024 384.077 C 789.086 381.919, 785.475 379.076, 783 377.758 C 780.525 376.441, 776.002 373.750, 772.949 371.778 C 769.896 369.806, 765.846 367.541, 763.949 366.745 C 762.052 365.948, 758.828 364.158, 756.784 362.766 C 754.740 361.374, 751.365 359.918, 749.284 359.530 C 747.203 359.141, 743.475 357.776, 741 356.496 C 738.525 355.216, 734.475 353.417, 732 352.498 C 729.525 351.579, 724.350 349.329, 720.500 347.498 C 716.650 345.667, 711.025 343.584, 708 342.869 C 704.975 342.154, 701.150 340.768, 699.500 339.788 C 697.850 338.809, 695.464 338.006, 694.197 338.004 C 692.930 338.002, 690.238 336.875, 688.215 335.500 C 686.191 334.125, 683.214 333, 681.598 333 C 679.982 333, 675.699 331.684, 672.080 330.075 C 665.435 327.122, 653.690 322.346, 644.500 318.860 C 641.750 317.817, 638.375 316.350, 637 315.601 C 635.625 314.851, 631.125 313.087, 627 311.681 C 618.950 308.937, 610.362 305.719, 600.060 301.584 C 596.519 300.163, 592.861 299, 591.933 299 C 591.004 299, 589.723 298.371, 589.085 297.603 C 587.815 296.072, 579.791 293.145, 573.500 291.917 C 568.753 290.991, 559.118 287.638, 553.434 284.934 C 551.198 283.870, 547.737 283, 545.743 283 C 543.749 283, 541.847 282.562, 541.517 282.027 C 540.656 280.635, 534.330 279.119, 528.500 278.908 C 525.309 278.793, 521.935 277.841, 519.177 276.278 C 515.438 274.161, 514.018 273.907, 508.677 274.403 C 505.280 274.719, 501.600 274.992, 500.500 275.010 C 496.105 275.084, 478.998 273.117, 477.848 272.406 C 477.173 271.989, 473.218 271.036, 469.060 270.289 C 464.902 269.542, 458.012 268.271, 453.750 267.465 C 435.509 264.016, 429.006 262.832, 420.750 261.457 C 415.938 260.656, 407.950 259.325, 403 258.500 C 398.050 257.675, 390.063 256.344, 385.250 255.543 C 380.438 254.741, 372.900 253.421, 368.500 252.610 C 364.100 251.799, 356.675 250.484, 352 249.689 C 347.325 248.894, 342.825 247.977, 342 247.650 C 334.265 244.589, 288.311 243.193, 271 245.493" stroke="none" fill="#fffcfc" fill-rule="evenodd"/><path d="" stroke="none" fill="#fcfcfc" fill-rule="evenodd"/></svg>