<svg xmlns="http://www.w3.org/2000/svg" width="1000" height="1000" viewBox="0 0 1000 1000" version="1.1"><path d="M 452.676 212.657 C 451.570 213.764, 443.071 215.088, 431 216.035 C 424.675 216.531, 418.600 217.209, 417.500 217.541 C 416.400 217.873, 408.300 218.563, 399.500 219.075 C 383.023 220.032, 371.329 221.172, 360 222.928 C 342.868 225.582, 312.749 227.999, 296.500 228.024 C 275.780 228.056, 257.060 229.653, 251.500 231.862 C 248.750 232.954, 245.272 234.114, 243.772 234.438 C 240.079 235.235, 228.371 246.352, 227.054 250.311 C 226.239 252.762, 224.432 254.381, 219.247 257.308 C 208.473 263.389, 194.350 274.506, 191 279.543 C 190.175 280.784, 187.884 284.207, 185.908 287.149 C 177.541 299.613, 176.818 301.481, 176.644 311.085 L 176.482 319.983 169.807 327.241 C 159.028 338.962, 156.587 341.985, 149.816 352 C 143.224 361.749, 120.484 405.723, 117.609 414.280 C 116.726 416.909, 114.904 421.229, 113.560 423.881 C 103.256 444.216, 98.792 474.792, 105.193 481.193 C 107.371 483.371, 107.363 484.595, 105.025 506.500 C 103.541 520.393, 102.145 543.370, 102.069 555.143 C 102.015 563.429, 101.682 565.908, 100.562 566.338 C 96.361 567.950, 96.024 589.880, 99.991 603.500 C 100.471 605.150, 101.345 608.413, 101.932 610.750 C 105.089 623.313, 107.095 629.480, 113.242 645.500 C 120.434 664.245, 123.168 667.299, 132.881 667.437 C 136.224 667.485, 137.971 668.155, 140.248 670.260 C 141.890 671.778, 144.193 673.271, 145.367 673.576 C 146.616 673.902, 149.189 676.901, 151.576 680.816 C 154.838 686.165, 156.441 687.799, 159.600 689 C 161.772 689.825, 165.415 692.537, 167.696 695.027 C 169.979 697.519, 175.663 701.698, 180.336 704.321 C 185.007 706.943, 189.429 709.821, 190.164 710.716 C 192.399 713.441, 202.491 719.562, 209.694 722.562 C 213.437 724.121, 218.142 726.770, 220.149 728.448 C 227.757 734.812, 234.329 737.847, 256 745.008 C 257.925 745.644, 265.350 749.025, 272.500 752.521 C 281.106 756.728, 287.697 759.254, 292 759.994 C 298.774 761.159, 308.412 764.132, 312.892 766.438 C 318.972 769.569, 331.076 772.863, 338.760 773.478 C 345.081 773.984, 348.727 774.928, 354.294 777.500 C 366.390 783.089, 370.003 784.033, 381.500 784.610 C 387.550 784.914, 393.850 785.618, 395.500 786.174 C 397.150 786.731, 400.975 787.840, 404 788.638 C 407.025 789.436, 411.075 790.553, 413 791.120 C 421.183 793.530, 426.268 794.277, 439.500 795.012 C 452.670 795.743, 466.227 797.786, 468.910 799.444 C 469.567 799.851, 477.169 800.369, 485.803 800.597 C 494.436 800.824, 503.975 801.472, 507 802.036 C 517.817 804.055, 529.659 805.190, 539.500 805.151 C 557.178 805.083, 569.076 805.064, 588.500 805.073 C 621.194 805.088, 645.610 804.279, 647.799 803.108 C 648.937 802.498, 650.911 801.993, 652.184 801.985 C 653.458 801.977, 656.372 801.319, 658.659 800.522 C 660.947 799.725, 669.497 798.653, 677.659 798.140 C 685.822 797.628, 693.625 796.758, 695 796.208 C 696.375 795.658, 699.525 794.631, 702 793.925 C 704.475 793.219, 708.246 791.783, 710.381 790.734 C 712.676 789.605, 717.374 788.613, 721.881 788.306 C 729.773 787.767, 737.398 785.783, 740 783.592 C 740.825 782.898, 743.075 781.751, 745 781.045 C 746.925 780.338, 750.750 778.747, 753.500 777.508 C 756.250 776.269, 760.750 774.351, 763.500 773.245 C 775.578 768.388, 779.202 766.444, 782.451 763.081 C 784.354 761.111, 787.371 758.375, 789.156 757 C 793.618 753.561, 800 747.035, 800 745.910 C 800 745.401, 801.845 744.246, 804.099 743.344 C 808.251 741.682, 812 735.802, 812 730.951 C 812 729.915, 813.785 726.305, 815.967 722.930 C 821.292 714.691, 824 707.103, 824 700.422 C 824 696.286, 824.559 694.162, 826.250 691.869 C 828.128 689.323, 828.462 687.718, 828.271 682.159 C 828.145 678.497, 828.545 672.514, 829.160 668.864 C 830.056 663.547, 829.984 660.663, 828.798 654.364 C 827.983 650.039, 827.509 643.970, 827.744 640.877 C 828.077 636.483, 827.695 634.322, 825.992 630.985 C 824.433 627.928, 824.003 625.834, 824.479 623.608 C 825.847 617.208, 826.147 611.144, 825.186 609.348 C 824.640 608.327, 823.672 602.994, 823.036 597.496 C 822.399 591.998, 821.390 585.925, 820.794 584 C 820.197 582.075, 819.364 576.675, 818.942 572 C 818.521 567.325, 817.662 561.250, 817.034 558.500 C 816.406 555.750, 815.502 550.350, 815.025 546.500 C 814.549 542.650, 813.409 536.800, 812.493 533.500 C 811.576 530.200, 810.456 526.005, 810.002 524.177 C 809.549 522.349, 808.522 520.099, 807.721 519.177 C 806.892 518.222, 806.021 514.421, 805.699 510.353 C 805.269 504.923, 804.397 501.901, 802.067 497.772 C 800.337 494.707, 799 490.879, 799 488.990 C 799 482.237, 794.112 469.557, 788.039 460.557 C 785.066 456.152, 783 451.980, 783 450.383 C 783 447.548, 777.482 438, 775.844 438 C 775.322 438, 774.393 436.537, 773.777 434.750 C 772.284 430.411, 764.338 415.258, 761.587 411.500 C 760.378 409.850, 758.215 406.460, 756.779 403.966 C 754.306 399.670, 747.241 392.543, 741.732 388.786 C 740.350 387.843, 737.671 384.243, 735.779 380.786 C 733.707 377.001, 730.978 373.631, 728.919 372.315 C 727.039 371.114, 724.825 369.374, 724 368.449 C 717.287 360.923, 692.787 337.442, 690 335.863 C 688.075 334.773, 684.045 332.332, 681.044 330.440 C 678.044 328.548, 674.428 327, 673.010 327 C 671.188 327, 669.895 326.092, 668.604 323.907 C 666.223 319.876, 658.477 315, 654.454 315 C 652.574 315, 649.712 313.850, 647.369 312.152 C 641.408 307.834, 639.245 306.877, 633.122 305.848 C 630.030 305.328, 625.966 304.642, 624.091 304.323 C 622.216 304.005, 618.616 302.164, 616.091 300.234 C 609.920 295.516, 604.692 293.414, 597.500 292.761 C 594.200 292.461, 588.800 291.207, 585.500 289.974 C 579.204 287.622, 554.646 279.521, 549.500 278.099 C 540.193 275.528, 537.254 274.689, 535 273.960 C 533.625 273.515, 530.813 272.872, 528.750 272.530 C 525.525 271.996, 524.988 271.531, 524.913 269.205 C 524.488 256.010, 523.040 249.044, 518.358 237.666 C 513.058 224.786, 513.425 225.198, 500.085 217.105 L 491.670 212 472.502 212 C 461.959 212, 453.038 212.296, 452.676 212.657" stroke="none" fill="#fffcfc" fill-rule="evenodd"/><path d="" stroke="none" fill="#fcfcfc" fill-rule="evenodd"/></svg>