<svg xmlns="http://www.w3.org/2000/svg" width="1000" height="1000" viewBox="0 0 1000 1000" version="1.1"><path d="M 521 220.911 C 505.498 221.781, 495.005 228.190, 491.023 239.219 C 489.776 242.674, 487.947 247.197, 486.959 249.270 C 485.838 251.621, 484.701 257.867, 483.937 265.865 C 482.713 278.689, 482.713 278.689, 475.606 280.434 C 471.698 281.394, 467.375 282.537, 466 282.974 C 464.625 283.411, 461.700 284.266, 459.500 284.875 C 449.342 287.685, 428.158 294.415, 424.500 295.994 C 419.112 298.320, 411.163 300.830, 410.689 300.355 C 408.530 298.197, 393.096 304.361, 386.710 309.931 C 384.369 311.974, 382.011 312.901, 378 313.357 C 366.766 314.634, 364.394 315.323, 359.866 318.623 C 356.999 320.712, 354.066 322, 352.175 322 C 350.494 322, 348.840 322.450, 348.500 323 C 348.160 323.550, 347.034 324, 345.999 324 C 344.963 324, 342.025 326.421, 339.470 329.380 C 335.715 333.730, 334.090 334.859, 330.986 335.275 C 325.480 336.014, 311.118 346.193, 301.094 356.463 C 296.511 361.158, 292.520 365, 292.225 365 C 291.066 365, 284 372.925, 284 374.224 C 284 374.984, 281.872 376.756, 279.271 378.162 C 274.759 380.600, 271.269 384.772, 271.040 388 C 270.895 390.045, 268.278 392.984, 263.500 396.465 C 257.801 400.618, 252.131 406.819, 249.766 411.486 C 248.647 413.694, 247.379 415.729, 246.948 416.008 C 244.960 417.298, 235 436.092, 235 438.555 C 235 439.463, 233.003 442.427, 230.563 445.141 C 227.265 448.809, 225.815 451.470, 224.911 455.506 C 224.192 458.721, 222.738 461.837, 221.348 463.143 C 220.057 464.356, 219 465.908, 219 466.591 C 219 467.274, 218.662 467.983, 218.250 468.167 C 215.430 469.420, 208 490.886, 208 497.782 C 208 498.747, 206.875 501.191, 205.500 503.215 C 203.460 506.217, 203 508.103, 203 513.468 C 203 518.725, 202.516 520.790, 200.584 523.771 C 196.283 530.409, 191.529 553.753, 190.355 574 C 190.053 579.225, 189.312 584.100, 188.710 584.834 C 185.755 588.435, 182.848 616.493, 184.515 625.326 C 185.079 628.315, 184.747 630.104, 182.995 633.510 C 181.353 636.703, 180.928 638.754, 181.407 641.184 C 182.387 646.160, 182.260 647.765, 180.423 653.606 C 178.496 659.731, 178.835 666.958, 181.279 671.857 C 182.792 674.891, 182.768 675.279, 180.865 678.505 C 178.573 682.389, 178.899 684.337, 182.489 688.206 C 184.675 690.562, 185 691.822, 185 697.934 C 185 704.581, 188.673 715.688, 191.250 716.833 C 191.663 717.017, 192 717.627, 192 718.189 C 192 718.751, 193.125 720.548, 194.500 722.182 C 196.115 724.102, 197 726.381, 197 728.622 C 197 732.463, 200.613 736.987, 203.705 737.018 C 204.746 737.028, 206.878 739.143, 208.782 742.055 C 210.587 744.815, 213.062 747.469, 214.282 747.951 C 215.502 748.433, 218.926 751.167, 221.891 754.026 C 227.018 758.970, 235.223 764.003, 238.145 763.997 C 238.890 763.996, 241.300 764.877, 243.500 765.956 C 250.567 769.422, 258.425 772.716, 261.180 773.369 C 262.654 773.717, 264.463 774.606, 265.201 775.344 C 267.717 777.860, 270.866 779, 275.298 779 C 280.921 779, 289.221 780.563, 293.324 782.394 C 304.437 787.354, 315.062 789.683, 330.500 790.545 C 338.496 790.991, 344.502 791.902, 348.500 793.276 C 353.552 795.011, 357.424 795.382, 373 795.623 C 383.175 795.781, 397.125 796.398, 404 796.995 C 414.560 797.912, 418.317 797.817, 428.212 796.387 C 437.897 794.988, 441.133 794.894, 446.905 795.847 C 457.738 797.636, 485.946 796.006, 490.257 793.341 C 490.922 792.930, 498.224 792.473, 506.483 792.325 C 522.593 792.037, 530.012 791.168, 539.500 788.455 C 542.960 787.466, 551.638 786.415, 560 785.971 C 567.975 785.547, 576.300 784.751, 578.500 784.200 C 590.227 781.265, 598.606 778.758, 599.450 777.931 C 599.972 777.419, 604.922 776.980, 610.450 776.956 C 619.719 776.915, 628.892 775.441, 630.618 773.715 C 631.012 773.322, 631.993 773, 632.800 773 C 633.607 773, 637.357 771.425, 641.135 769.500 C 646.128 766.955, 649.299 766, 652.752 766 C 661.093 766, 672.892 762.981, 683.048 758.249 C 690.042 754.991, 696.940 752.906, 706.804 751.072 C 710.271 750.427, 714.546 749.040, 716.304 747.989 C 722.761 744.130, 737.983 737, 739.765 737 C 740.774 737, 742.028 736.605, 742.550 736.123 C 743.073 735.641, 745.975 734.483, 749 733.552 C 759.594 730.288, 769.476 725.337, 774.380 720.835 C 775.414 719.886, 778.789 717.887, 781.880 716.392 C 784.971 714.898, 788.400 713.214, 789.500 712.649 C 790.600 712.083, 793.075 710.833, 795 709.869 C 796.925 708.906, 800.972 706.066, 803.993 703.559 C 807.014 701.051, 809.848 699, 810.291 699 C 812.192 699, 822.487 691.561, 826.925 686.981 C 829.579 684.241, 832.447 682, 833.299 682 C 835.069 682, 841 677.294, 841 675.890 C 841 673.385, 846.563 667.025, 850.544 664.978 C 852.995 663.717, 855 662.167, 855 661.534 C 855 657.845, 857.337 656.895, 862.275 658.578 C 869.382 661, 871.978 658.327, 878.138 642.250 C 878.612 641.013, 879.414 638.987, 879.920 637.750 C 882.433 631.603, 886 621.315, 886 620.215 C 886 619.532, 886.434 618.191, 886.965 617.236 C 887.495 616.281, 889.086 610.325, 890.500 604 C 891.913 597.675, 893.504 591.118, 894.035 589.429 C 896.020 583.112, 895.263 575.352, 892.445 573.135 C 889.898 571.132, 889.889 571.068, 889.524 552.813 C 889.323 542.741, 888.683 529.775, 888.101 524 C 887.520 518.225, 886.636 509, 886.137 503.500 C 885.639 498, 884.982 492.375, 884.679 491 C 882.651 481.822, 882.917 476.982, 885.501 476 C 891.135 473.858, 890.901 460.160, 884.965 444.500 C 882.366 437.646, 878.539 428.423, 875.091 420.707 C 873.913 418.072, 872.199 414.022, 871.281 411.707 C 870.364 409.393, 868.126 404.683, 866.309 401.241 C 861.654 392.421, 861.732 392.575, 856.382 381.500 C 853.726 376, 851.203 371.350, 850.776 371.167 C 850.349 370.983, 850 370.370, 850 369.803 C 850 365.469, 831.706 341.965, 816.214 326.394 C 812.352 322.512, 812.046 321.861, 813.121 319.793 C 815.624 314.976, 816 313.970, 816 312.096 C 816 306.746, 805.740 289.472, 798.110 281.977 C 792.055 276.029, 784.566 270, 783.230 270 C 782.645 270, 782.017 269.608, 781.833 269.129 C 781.452 268.132, 771.405 261.670, 768.699 260.682 C 767.708 260.320, 766.046 258.106, 765.005 255.762 C 761.211 247.220, 755.257 243.177, 740 238.784 C 738.075 238.230, 721.650 237.166, 703.500 236.420 C 670.835 235.078, 656.067 234, 642.500 231.968 C 630.590 230.183, 621.084 229.179, 605.500 228.058 C 597.250 227.464, 586.624 226.534, 581.887 225.989 C 577.149 225.445, 570.399 224.993, 566.887 224.985 C 563.374 224.976, 557.125 224.126, 553 223.095 C 543.696 220.771, 534.580 220.148, 521 220.911 M 760 285.881 C 760 287.893, 765.467 292.611, 768.440 293.165 C 771.026 293.648, 772.772 290.603, 770.909 288.856 C 766.248 284.484, 760 282.780, 760 285.881" stroke="none" fill="#fffcfc" fill-rule="evenodd"/><path d="" stroke="none" fill="#fcfcfc" fill-rule="evenodd"/></svg>